<svg xmlns="http://www.w3.org/2000/svg" width="800" height="1200" viewBox="0 0 800 1200"><defs>
    <linearGradient id="edge" x1="0" y1="0" x2="0" y2="1">
      <stop offset="0" stop-color="#a07a3f" stop-opacity=".95"/>
      <stop offset=".5" stop-color="#33302a"/>
      <stop offset="1" stop-color="#a07a3f" stop-opacity=".9"/>
    </linearGradient>
    <radialGradient id="glow" cx=".5" cy=".42" r=".75">
      <stop offset=".55" stop-color="#6b4e26" stop-opacity="0"/>
      <stop offset="1" stop-color="#6b4e26" stop-opacity=".55"/>
    </radialGradient>
  </defs><rect x="0" y="0" width="800" height="1200" rx="44" fill="url(#glow)"/><rect x="26" y="26" width="748" height="1148" rx="30" fill="none" stroke="#a07a3f" stroke-width="12"/><rect x="52" y="150" width="696" height="780" rx="18" fill="none" stroke="#a07a3f" stroke-width="5" opacity=".85"/><circle cx="36" cy="36" r="10" fill="none" stroke="#a07a3f" stroke-width="3" opacity="0.9"/><circle cx="36" cy="36" r="19" fill="none" stroke="#a07a3f" stroke-width="3" opacity="0.72"/><circle cx="36" cy="36" r="28" fill="none" stroke="#a07a3f" stroke-width="3" opacity="0.54"/><circle cx="36" cy="36" r="5" fill="#a07a3f"/><circle cx="764" cy="36" r="10" fill="none" stroke="#a07a3f" stroke-width="3" opacity="0.9"/><circle cx="764" cy="36" r="19" fill="none" stroke="#a07a3f" stroke-width="3" opacity="0.72"/><circle cx="764" cy="36" r="28" fill="none" stroke="#a07a3f" stroke-width="3" opacity="0.54"/><circle cx="764" cy="36" r="5" fill="#a07a3f"/><circle cx="36" cy="1164" r="10" fill="none" stroke="#a07a3f" stroke-width="3" opacity="0.9"/><circle cx="36" cy="1164" r="19" fill="none" stroke="#a07a3f" stroke-width="3" opacity="0.72"/><circle cx="36" cy="1164" r="28" fill="none" stroke="#a07a3f" stroke-width="3" opacity="0.54"/><circle cx="36" cy="1164" r="5" fill="#a07a3f"/><circle cx="764" cy="1164" r="10" fill="none" stroke="#a07a3f" stroke-width="3" opacity="0.9"/><circle cx="764" cy="1164" r="19" fill="none" stroke="#a07a3f" stroke-width="3" opacity="0.72"/><circle cx="764" cy="1164" r="28" fill="none" stroke="#a07a3f" stroke-width="3" opacity="0.54"/><circle cx="764" cy="1164" r="5" fill="#a07a3f"/><polygon points="400,62 430,96 400,130 370,96" fill="#c08a3e" stroke="#a07a3f" stroke-width="4"/><rect x="90" y="982" width="620" height="118" rx="16" fill="#33302a" stroke="#a07a3f" stroke-width="4" opacity=".96"/></svg>